<svg xmlns="http://www.w3.org/2000/svg" version="1.1" xmlns:xlink="http://www.w3.org/1999/xlink" xmlns:svgjs="http://svgjs.dev/svgjs" width="2000" height="1500" viewBox="0 0 2000 1500"><rect width="2000" height="1500" fill="#ffffff"></rect><g transform="matrix(0.75,0,0,0.75,249.090909090909,399.6415607951276)"><svg viewBox="0 0 396 185" data-background-color="#ffffff" preserveAspectRatio="xMidYMid meet" height="934" width="2000" xmlns="http://www.w3.org/2000/svg" xmlns:xlink="http://www.w3.org/1999/xlink"><g id="tight-bounds" transform="matrix(1,0,0,1,0.2400000000000091,0.02863847666152708)"><svg viewBox="0 0 395.52 184.94272304667695" height="184.94272304667695" width="395.52"><g><svg viewBox="0 0 395.52 184.94272304667695" height="184.94272304667695" width="395.52"><g transform="matrix(1,0,0,1,0,114.3020223769191)"><svg viewBox="0 0 395.52 70.64070066975785" height="70.64070066975785" width="395.52"><g id="textblocktransform"><svg viewBox="0 0 395.52 70.64070066975785" height="70.64070066975785" width="395.52" id="textblock"><g><svg viewBox="0 0 395.52 70.64070066975785" height="70.64070066975785" width="395.52"><g transform="matrix(1,0,0,1,0,0)"><svg width="395.52" viewBox="2.25 -39 291.13 52" height="70.64070066975785" data-palette-color="#1f55b3"><path d="M32.9-28.85L32.9-28.85Q32.9-24.85 30.5-22.2 28.1-19.55 22.85-18.65L22.85-18.65 33.9-5.35Q35.25-3.7 36.88-2.98 38.5-2.25 40.75-1.9L40.75-1.9 40.75 0 31.1 0 18.85-15.7Q18.2-16.55 17.63-17.05 17.05-17.55 16.43-17.82 15.8-18.1 14.98-18.18 14.15-18.25 13-18.25L13-18.25 13-7.85Q13-6 13.23-4.83 13.45-3.65 14.18-3 14.9-2.35 16.28-2.13 17.65-1.9 19.9-1.9L19.9-1.9 19.9 0 2.25 0 2.25-1.9Q4-1.95 5.08-2.2 6.15-2.45 6.75-3.05 7.35-3.65 7.55-4.75 7.75-5.85 7.75-7.6L7.75-7.6 7.75-30.9Q7.75-32.65 7.58-33.73 7.4-34.8 6.88-35.43 6.35-36.05 5.35-36.27 4.35-36.5 2.75-36.6L2.75-36.6 2.75-38.5 18.45-38.5Q25.35-38.5 29.13-35.95 32.9-33.4 32.9-28.85ZM13-35.3L13-20.75 16.55-20.75Q21.55-20.75 23.98-22.58 26.4-24.4 26.4-28.6L26.4-28.6Q26.4-32.65 24.48-34.4 22.55-36.15 18.45-36.15L18.45-36.15 13.85-36.15Q13-36.15 13-35.3L13-35.3ZM55.15-27L55.15-27Q58-27 60.55-25.98 63.1-24.95 65.02-23.15 66.95-21.35 68.07-18.88 69.2-16.4 69.2-13.45L69.2-13.45Q69.2-10.4 68.07-7.85 66.95-5.3 65.02-3.45 63.1-1.6 60.55-0.55 58 0.5 55.15 0.5L55.15 0.5Q52.35 0.5 49.82-0.53 47.3-1.55 45.4-3.4 43.5-5.25 42.4-7.83 41.3-10.4 41.3-13.45L41.3-13.45Q41.3-16.4 42.4-18.9 43.5-21.4 45.4-23.2 47.3-25 49.82-26 52.35-27 55.15-27ZM55.15-24.6L55.15-24.6Q53.3-24.6 51.77-23.8 50.25-23 49.17-21.53 48.1-20.05 47.52-17.98 46.95-15.9 46.95-13.4L46.95-13.4Q46.95-10.8 47.52-8.7 48.1-6.6 49.17-5.13 50.25-3.65 51.75-2.85 53.25-2.05 55.15-2.05L55.15-2.05Q57.05-2.05 58.6-2.85 60.15-3.65 61.25-5.15 62.35-6.65 62.95-8.75 63.55-10.85 63.55-13.4L63.55-13.4Q63.55-15.9 62.95-17.95 62.35-20 61.25-21.48 60.15-22.95 58.6-23.78 57.05-24.6 55.15-24.6ZM95.55-16.4L84.65 7.85Q82.35 13 77.5 13L77.5 13Q74.35 13 74.35 10.65L74.35 10.65Q74.35 9.4 75.22 8.83 76.1 8.25 78.45 7.85L78.45 7.85Q79.5 7.7 80.25 7.43 81 7.15 81.6 6.73 82.2 6.3 82.67 5.65 83.15 5 83.6 4.05L83.6 4.05 85.35 0.55 75.75-20.3Q75.1-21.7 74.62-22.53 74.15-23.35 73.62-23.83 73.1-24.3 72.45-24.48 71.8-24.65 70.8-24.75L70.8-24.75 70.8-26.5 84.05-26.5 84.05-24.75Q80.7-24.75 80.7-23.1L80.7-23.1Q80.7-22.45 81.1-21.05 81.5-19.65 82.1-18.2L82.1-18.2 87.6-4.9 87.85-4.9 92.4-16.15Q93.05-17.8 93.47-18.85 93.9-19.9 94.12-20.58 94.35-21.25 94.42-21.7 94.5-22.15 94.5-22.55L94.5-22.55Q94.5-23.85 93.77-24.3 93.05-24.75 91-24.75L91-24.75 91-26.5 102-26.5 102-24.75Q101.05-24.75 100.4-24.5 99.75-24.25 99.07-23.38 98.4-22.5 97.57-20.85 96.75-19.2 95.55-16.4L95.55-16.4ZM132.74-22.9L132.74-22.9Q135.14-24.75 136.24-26.68 137.34-28.6 137.34-30.85L137.34-30.85Q137.34-33.2 136.29-34.58 135.24-35.95 133.49-35.95L133.49-35.95Q130.19-35.95 130.19-30.9L130.19-30.9Q130.19-28.7 130.84-26.68 131.49-24.65 132.74-22.9ZM138.64-6.65L129.89-18.2Q126.74-16.4 124.99-13.98 123.24-11.55 123.24-8.95L123.24-8.95Q123.24-6.2 125.02-4.42 126.79-2.65 129.59-2.65L129.59-2.65Q131.69-2.65 134.09-3.7 136.49-4.75 138.64-6.65L138.64-6.65ZM134.14-21L142.24-10.45Q143.44-11.95 144.47-13.38 145.49-14.8 146.24-16.07 146.99-17.35 147.39-18.4 147.79-19.45 147.79-20.1L147.79-20.1Q147.79-20.9 147.07-21.25 146.34-21.6 144.74-21.6L144.74-21.6 144.74-23.35 156.24-23.35 156.24-21.6Q155.14-21.6 154.37-21.48 153.59-21.35 152.99-21.05 152.39-20.75 151.87-20.25 151.34-19.75 150.84-18.95L150.84-18.95 143.74-8.55Q145.84-5.7 148.12-4.23 150.39-2.75 152.64-2.75L152.64-2.75Q153.29-2.75 153.79-2.88 154.29-3 154.72-3.33 155.14-3.65 155.52-4.2 155.89-4.75 156.29-5.6L156.29-5.6 157.54-5.25Q156.99-2.45 155.09-0.98 153.19 0.5 150.14 0.5L150.14 0.5Q148.89 0.5 147.77 0.23 146.64-0.05 145.49-0.7 144.34-1.35 143.04-2.4 141.74-3.45 140.19-5L140.19-5Q137.69-2.4 134.42-0.95 131.14 0.5 127.74 0.5L127.74 0.5Q125.44 0.5 123.52-0.18 121.59-0.85 120.19-2.02 118.79-3.2 117.99-4.83 117.19-6.45 117.19-8.35L117.19-8.35Q117.19-11.75 119.89-14.63 122.59-17.5 128.54-20.4L128.54-20.4Q126.94-22.75 126.22-24.8 125.49-26.85 125.49-29.1L125.49-29.1Q125.49-31.3 126.12-33.13 126.74-34.95 127.89-36.25 129.04-37.55 130.64-38.27 132.24-39 134.19-39L134.19-39Q135.89-39 137.32-38.45 138.74-37.9 139.79-36.9 140.84-35.9 141.42-34.55 141.99-33.2 141.99-31.55L141.99-31.55Q141.99-28.75 140.17-26.3 138.34-23.85 134.14-21L134.14-21ZM177.29-0.55L176.54-11.75 178.39-11.75Q178.74-9.5 179.71-7.7 180.69-5.9 182.16-4.65 183.64-3.4 185.56-2.73 187.49-2.05 189.74-2.05L189.74-2.05Q193.44-2.05 195.59-3.8 197.74-5.55 197.74-8.55L197.74-8.55Q197.74-9.8 197.31-10.85 196.89-11.9 195.89-12.88 194.89-13.85 193.21-14.8 191.54-15.75 188.99-16.85L188.99-16.85Q185.89-18.2 183.79-19.45 181.69-20.7 180.44-22.05 179.19-23.4 178.66-24.93 178.14-26.45 178.14-28.4L178.14-28.4Q178.14-30.7 178.96-32.65 179.79-34.6 181.29-36.02 182.79-37.45 184.84-38.23 186.89-39 189.34-39L189.34-39Q191.54-39 193.44-38.3 195.34-37.6 197.29-36.05L197.29-36.05 198.59-38.3 199.74-38.3 200.29-28.35 198.44-28.35Q197.24-32.45 194.96-34.45 192.69-36.45 189.49-36.45L189.49-36.45Q186.44-36.45 184.64-34.95 182.84-33.45 182.84-30.9L182.84-30.9Q182.84-29.7 183.24-28.73 183.64-27.75 184.54-26.88 185.44-26 186.89-25.13 188.34-24.25 190.49-23.3L190.49-23.3Q194.19-21.65 196.64-20.23 199.09-18.8 200.54-17.38 201.99-15.95 202.59-14.38 203.19-12.8 203.19-10.85L203.19-10.85Q203.19-8.35 202.19-6.25 201.19-4.15 199.39-2.65 197.59-1.15 195.09-0.33 192.59 0.5 189.59 0.5L189.59 0.5Q186.74 0.5 184.46-0.3 182.19-1.1 179.84-3L179.84-3 178.44-0.55 177.29-0.55ZM222.13-27L222.13-27Q224.98-27 227.53-25.98 230.08-24.95 232.01-23.15 233.93-21.35 235.06-18.88 236.18-16.4 236.18-13.45L236.18-13.45Q236.18-10.4 235.06-7.85 233.93-5.3 232.01-3.45 230.08-1.6 227.53-0.55 224.98 0.5 222.13 0.5L222.13 0.5Q219.33 0.5 216.81-0.53 214.28-1.55 212.38-3.4 210.48-5.25 209.38-7.83 208.28-10.4 208.28-13.45L208.28-13.45Q208.28-16.4 209.38-18.9 210.48-21.4 212.38-23.2 214.28-25 216.81-26 219.33-27 222.13-27ZM222.13-24.6L222.13-24.6Q220.28-24.6 218.76-23.8 217.23-23 216.16-21.53 215.08-20.05 214.51-17.98 213.93-15.9 213.93-13.4L213.93-13.4Q213.93-10.8 214.51-8.7 215.08-6.6 216.16-5.13 217.23-3.65 218.73-2.85 220.23-2.05 222.13-2.05L222.13-2.05Q224.03-2.05 225.58-2.85 227.13-3.65 228.23-5.15 229.33-6.65 229.93-8.75 230.53-10.85 230.53-13.4L230.53-13.4Q230.53-15.9 229.93-17.95 229.33-20 228.23-21.48 227.13-22.95 225.58-23.78 224.03-24.6 222.13-24.6ZM249.38-14.55L249.38-7.85Q249.38-5.8 249.48-4.63 249.58-3.45 250.01-2.83 250.43-2.2 251.26-2 252.08-1.8 253.53-1.7L253.53-1.7 253.53 0 240.43 0 240.43-1.7Q241.83-1.8 242.66-2 243.48-2.2 243.93-2.8 244.38-3.4 244.51-4.5 244.63-5.6 244.63-7.5L244.63-7.5 244.63-14.15Q244.63-20.1 244.33-21.4L244.33-21.4Q244.18-22.05 243.96-22.48 243.73-22.9 243.28-23.13 242.83-23.35 242.13-23.43 241.43-23.5 240.33-23.5L240.33-23.5 240.33-25.1 248.33-27 248.93-22.05 249.13-22.05Q251.03-24.4 253.58-25.7 256.13-27 259.13-27L259.13-27Q261.43-27 263.33-26.25 265.23-25.5 266.23-24.2L266.23-24.2Q267.08-23.05 267.43-21.23 267.78-19.4 267.78-16.2L267.78-16.2 267.78-7.85Q267.78-5.8 267.91-4.63 268.03-3.45 268.43-2.83 268.83-2.2 269.66-2 270.48-1.8 271.83-1.7L271.83-1.7 271.83 0 258.88 0 258.88-1.7Q260.28-1.75 261.11-1.98 261.93-2.2 262.36-2.8 262.78-3.4 262.91-4.53 263.03-5.65 263.03-7.5L263.03-7.5 263.03-14.1Q263.03-16.95 262.73-18.9 262.43-20.85 261.76-22.05 261.08-23.25 259.98-23.78 258.88-24.3 257.33-24.3L257.33-24.3Q255.08-24.3 253.21-23.13 251.33-21.95 250.28-19.9L250.28-19.9Q250.03-19.4 249.86-18.95 249.68-18.5 249.58-17.9 249.48-17.3 249.43-16.53 249.38-15.75 249.38-14.55L249.38-14.55ZM278.33-1.75L277.33 0 276.23 0 276.23-8.6 277.48-8.6Q279.43-1.55 284.58-1.55L284.58-1.55Q286.58-1.55 287.75-2.53 288.93-3.5 288.93-5.5L288.93-5.5Q288.93-6.25 288.7-6.78 288.48-7.3 287.85-7.88 287.23-8.45 286.1-9.2 284.98-9.95 283.13-11.1L283.13-11.1Q281.43-12.15 280.18-13.05 278.93-13.95 278.08-14.88 277.23-15.8 276.8-16.85 276.38-17.9 276.38-19.3L276.38-19.3Q276.38-21 276.95-22.43 277.53-23.85 278.53-24.85 279.53-25.85 280.88-26.43 282.23-27 283.83-27L283.83-27Q285.18-27 286.63-26.58 288.08-26.15 289.18-25.45L289.18-25.45 290.18-26.5 291.13-26.5 291.13-19.3 289.83-19.3Q288.73-22.35 287.43-23.65 286.13-24.95 284.23-24.95L284.23-24.95Q282.53-24.95 281.5-24.05 280.48-23.15 280.48-21.55L280.48-21.55Q280.48-20.7 280.75-20.08 281.03-19.45 281.63-18.85 282.23-18.25 283.15-17.63 284.08-17 285.38-16.2L285.38-16.2Q287.53-14.85 289.05-13.8 290.58-12.75 291.53-11.73 292.48-10.7 292.93-9.6 293.38-8.5 293.38-7.1L293.38-7.1Q293.38-3.55 291.08-1.53 288.78 0.5 285.03 0.5L285.03 0.5Q281.13 0.5 278.33-1.75L278.33-1.75Z" opacity="1" transform="matrix(1,0,0,1,0,0)" fill="#1f55b3" class="wordmark-text-0" data-fill-palette-color="primary" id="text-0"></path></svg></g></svg></g></svg></g></svg></g><g transform="matrix(1,0,0,1,148.9472758371973,0)"><svg viewBox="0 0 97.62544832560533 97.62544832560535" height="97.62544832560535" width="97.62544832560533"><g><svg></svg></g><g id="icon-0"><svg viewBox="0 0 97.62544832560533 97.62544832560535" height="97.62544832560535" width="97.62544832560533"><g><path transform="scale(0.97625,0.97625)" d="M30 100c-16.569 0-30-13.431-30-30v-40c0-16.569 13.431-30 30-30h40c16.569 0 30 13.431 30 30v40c0 16.569-13.431 30-30 30z" fill="#ff585f" fill-rule="nonzero" stroke="none" stroke-width="1" stroke-linecap="butt" stroke-linejoin="miter" stroke-miterlimit="10" stroke-dasharray="" stroke-dashoffset="0" font-family="none" font-weight="none" font-size="none" text-anchor="none" style="mix-blend-mode: normal" data-fill-palette-color="accent"></path></g><g transform="matrix(1,0,0,1,19.525089665121065,25.257639689964545)"><svg viewBox="0 0 58.5752689953632 47.11016894567626" height="47.11016894567626" width="58.5752689953632"><g><svg xmlns="http://www.w3.org/2000/svg" xmlns:xlink="http://www.w3.org/1999/xlink" version="1.1" x="0" y="0" viewBox="0 9.786 100.00034525290005 80.42699999999999" enable-background="new 0 0 100 100" xml:space="preserve" id="dxe-0" width="58.5752689953632" height="47.11016894567626" class="icon-dxe-0" data-fill-palette-color="quaternary"><path d="M49.942 52.994L90.595 51.529C88.068 47.352 87.436 43.698 82.606 43.068 75.377 42.128 68.148 41.185 60.918 40.242L18.843 34.762C20.101 36.792 39.724 53.361 49.942 52.994" fill="#ffffff" data-fill-palette-color="quaternary"></path><path d="M0 9.786C4.391 17.043 26.615 32.858 32.953 33.672 50.283 35.903 67.61 38.132 84.939 40.36 81.546 34.753 80.759 31.01 74.627 29.401L47.91 22.378C31.94 18.182 15.97 13.984 0 9.786" fill="#ffffff" data-fill-palette-color="quaternary"></path><path d="M63.108 66.207L94.349 59.547C92.321 56.201 92.315 54.188 88.522 54.358 82.364 54.631 76.208 54.907 70.051 55.18 58.708 55.686 47.365 56.194 36.023 56.698 37.298 58.064 54.94 67.947 63.108 66.207" fill="#ffffff" data-fill-palette-color="quaternary"></path><path d="M87.682 90.213C93.407 86.494 94.944 82.492 98.201 76.406 101.852 69.582 99.458 68.562 95.38 61.81 94.963 61.122 89.538 62.042 88.927 62.714 88.182 63.532 88.679 68.169 88.633 69.21z" fill="#ffffff" data-fill-palette-color="quaternary"></path><path d="M86.35 63.447C82.555 64.256 77.746 63.638 76.778 67.676L72.658 84.887C81.904 82.678 86.028 71.582 86.35 63.447" fill="#ffffff" data-fill-palette-color="quaternary"></path><path d="M74.666 66.121C65.518 68.074 65.71 70.732 61.787 79.301 68.007 78.711 73.811 71.941 74.666 66.121" fill="#ffffff" data-fill-palette-color="quaternary"></path></svg></g></svg></g></svg></g></svg></g><g></g></svg></g><defs></defs></svg><rect width="395.52" height="184.94272304667695" fill="none" stroke="none" visibility="hidden"></rect></g></svg></g></svg>